<?xml version="1.0" encoding="utf-8"?>
<!-- Svg Vector Icons : http://www.onlinewebfonts.com/icon -->
<!DOCTYPE svg PUBLIC "-//W3C//DTD SVG 1.1//EN" "http://www.w3.org/Graphics/SVG/1.1/DTD/svg11.dtd">
<svg version="1.1" xmlns="http://www.w3.org/2000/svg" xmlns:xlink="http://www.w3.org/1999/xlink" x="0px" y="0px" viewBox="0 0 1000 1000" enable-background="new 0 0 1000 1000" xml:space="preserve">
<metadata> Svg Vector Icons : http://www.onlinewebfonts.com/icon </metadata>
<g><g transform="translate(0.000000,511.000000) scale(0.100000,-0.100000)"><path d="M3661.2,4998c-837.6-95.6-1390.4-303.4-2005.6-754.4c-189.1-137.2-523.7-457.2-685.8-656.7C348.4,2828.2,28.4,1797.4,113.6,839.3c47.8-527.9,160-939.4,378.3-1388.3c372-769,978.9-1382.1,1747.9-1766.6c835.5-419.8,1820.6-517.5,2735.1-270.2c1660.6,448.9,2832.7,1993.1,2832.7,3730.6c0,939.4-338.8,1831-976.8,2570.9c-505,584-1313.5,1051.6-2092.9,1209.6C4388.7,4995.9,3925.2,5027.1,3661.2,4998z M4291,4387c1413.2-153.8,2550.1-1188.8,2855.6-2606.2c39.5-176.7,45.7-274.3,45.7-636c0-361.6-6.3-457.2-45.7-638c-286.8-1321.8-1244.9-2282-2560.5-2564.6c-313.8-68.6-951.9-68.6-1259.5-2.1c-288.9,62.4-496.7,133-769,264C678.9-902.4,113.6,1508.5,1395.9,3150.4C2085.9,4033.6,3191.5,4505.4,4291,4387z"/><path d="M4877.1,3628.4c-1490.2-299.3-2344.3-816.8-2780.8-1683.4c-85.2-170.4-185-459.3-232.8-673.4c-39.5-178.7-93.5-621.4-79-636c4.2-6.2,54,24.9,112.2,64.4c259.8,187,696.2,403.2,1463.1,725.3c278.5,118.5,403.2,180.8,399,199.5c-66.5,261.9-74.8,345-74.8,683.8c0,295.1,8.3,399,43.6,550.8c62.4,268.1,79,301.4,130.9,286.8c39.5-10.4,41.6-20.8,27-108.1c-35.3-201.6-18.7-665.1,31.2-887.4c66.5-301.4,116.4-436.4,155.9-428.1c18.7,2.1,309.7,118.5,646.4,257.7l613.1,251.5l-12.5,126.8c-14.6,170.4,39.5,469.7,126.8,696.2c99.8,255.6,153.8,359.6,185,342.9c14.6-6.2,2.1,6.2-27,31.2c-99.8,81-403.2,251.5-444.8,249.4C5134.7,3678.2,5008,3655.4,4877.1,3628.4z"/><path d="M5627.3,3216.9c-24.9-83.1-54-207.8-64.4-274.3c-37.4-222.4-18.7-592.3,27-592.3c29.1,0,683.8,288.9,708.7,311.7c29.1,29.1-168.4,286.8-386.6,505c-112.2,110.2-212,201.6-222.4,201.6C5681.4,3368.6,5652.3,3300,5627.3,3216.9z"/><path d="M6415,2371c-27-16.6-20.8-29.1,31.2-72.7c97.7-79,114.3-70.7,62.4,31.2C6473.2,2395.9,6462.8,2402.2,6415,2371z"/><path d="M5999.3,2169.4c-85.2-39.5-313.8-141.3-505-224.5c-193.3-83.1-355.4-157.9-363.7-164.2c-31.2-33.3,355.4-374.1,613.1-540.4c205.7-133,538.3-291,785.6-374.1l207.8-68.6l18.7,64.4c24.9,93.5,0,642.2-39.5,823c-64.4,303.4-62.4,299.3-168.3,338.8c-52,18.7-160,76.9-236.9,128.9s-143.4,93.5-147.5,91.4C6159.4,2244.2,6084.5,2211,5999.3,2169.4z"/><path d="M4189.1,1417.1c-660.9-264-953.9-392.8-953.9-419.8c0-29.1,195.4-251.5,376.2-428.1c320.1-315.9,723.3-577.8,1095.3-712.9c155.9-56.1,189.1-87.3,153.8-139.2C4823-341.2,4160-114.7,3796.3,78.6c-280.6,149.6-536.2,334.6-752.4,544.5l-203.7,195.4l-243.2-147.6c-303.4-180.8-577.8-374.1-847.9-596.5c-320.1-264-305.5-226.5-176.7-432.3c58.2-93.5,135.1-203.7,166.3-243.2l58.2-72.7l153.8,155.9c83.1,87.3,239,224.5,345,307.6l193.3,147.6L2753-193.6c1255.3-627.6,2427.5-710.8,3427.1-241.1l174.6,81.1L6477.4-98C6593.7,143,6683.1,407,6714.3,594l14.5,83.1L6494,737.4c-602.7,151.7-1161.8,436.4-1546.3,787.7l-145.5,135.1L4189.1,1417.1z"/><path d="M9750.7,4561.5c-182.9-76.9-513.3-166.3-870.8-234.8c-278.5-56.1-1217.9-182.9-1627.3-222.4c-83.1-6.2-151.7-20.8-151.7-29.1c0-6.2,25-35.3,54-64.4c116.4-108.1,536.2-704.5,575.7-814.7c18.7-56.1,827.2,384.5,1367.5,746.1c178.8,118.5,336.7,216.1,349.2,216.1c49.9,0,16.6-43.6-126.8-172.5c-361.6-320.1-775.2-627.7-1226.2-916.5c-124.7-79-224.5-145.5-224.5-149.6c0-2.1,29.1-79,64.4-168.3c37.4-89.4,91.5-236.9,120.6-328.4l54-166.3l120.5-18.7c95.6-14.6,118.5-24.9,118.5-56.1c0-33.3-16.6-39.5-103.9-39.5c-56.1,0-103.9-4.2-103.9-10.4s20.8-122.6,45.7-255.6c39.5-207.8,45.7-315.9,47.8-737.8V641.8l58.2,70.7c498.8,579.8,789.8,1072.4,1084.9,1824.8c234.8,598.5,372,1136.8,519.6,2022.2C9906.6,4628,9906.6,4628,9750.7,4561.5z"/><path d="M6774.5-1687.9c-214.1-214.1-234.8-241.1-234.8-311.7c0-137.2,135.1-220.3,243.2-147.5c33.3,22.9,155.9,139.2,274.3,263.9c201.6,209.9,214.1,226.5,201.6,291c-16.6,87.3-81,139.2-174.6,139.2C7015.6-1453.1,6986.5-1476,6774.5-1687.9z"/><path d="M7472.9-1891.6c-394.9-58.2-617.3-498.8-434.4-862.5c49.9-101.8,209.9-270.2,981-1039.2c1020.4-1016.3,993.4-995.5,1263.6-995.5c332.5,0,584,255.6,586.1,592.3c2.1,268.1,6.2,261.9-1026.7,1296.9c-606.9,606.9-947.7,933.1-999.7,956C7736.8-1895.8,7589.2-1875,7472.9-1891.6z"/></g></g>
</svg>