<?xml version="1.0" encoding="UTF-8" standalone="no"?>
<!-- Svg Vector Icons : http://www.onlinewebfonts.com/icon -->

<svg
   xmlns:dc="http://purl.org/dc/elements/1.1/"
   xmlns:cc="http://creativecommons.org/ns#"
   xmlns:rdf="http://www.w3.org/1999/02/22-rdf-syntax-ns#"
   xmlns:svg="http://www.w3.org/2000/svg"
   xmlns="http://www.w3.org/2000/svg"
   xmlns:sodipodi="http://sodipodi.sourceforge.net/DTD/sodipodi-0.dtd"
   xmlns:inkscape="http://www.inkscape.org/namespaces/inkscape"
   version="1.1"
   x="0px"
   y="0px"
   viewBox="0 0 1000 1000"
   enable-background="new 0 0 1000 1000"
   xml:space="preserve"
   id="svg18"
   sodipodi:docname="math.svg"
   inkscape:version="0.92.1 unknown"><defs
     id="defs22" /><sodipodi:namedview
     pagecolor="#ffffff"
     bordercolor="#666666"
     borderopacity="1"
     objecttolerance="10"
     gridtolerance="10"
     guidetolerance="10"
     inkscape:pageopacity="0"
     inkscape:pageshadow="2"
     inkscape:window-width="1366"
     inkscape:window-height="719"
     id="namedview20"
     showgrid="false"
     inkscape:zoom="0.536"
     inkscape:cx="500"
     inkscape:cy="500"
     inkscape:window-x="0"
     inkscape:window-y="0"
     inkscape:window-maximized="1"
     inkscape:current-layer="svg18" /><metadata
     id="metadata10"> Svg Vector Icons : http://www.onlinewebfonts.com/icon <rdf:RDF><cc:Work
     rdf:about=""><dc:format>image/svg+xml</dc:format><dc:type
       rdf:resource="http://purl.org/dc/dcmitype/StillImage" /><dc:title /></cc:Work></rdf:RDF></metadata><g
     id="g16"
     transform="matrix(1.0204065,0,0,1.0231498,-10.202416,-21.836142)"><g
       transform="matrix(0.1,0,0,-0.1,0,511)"
       id="g14"><path
         d="M 2924.7,4520.5 C 1407.5,4404.5 490.8,3822 234.6,2815.2 110.5,2332.8 56.5,1450.2 140.5,1266 c 20,-46 50,-88.1 66.1,-94.1 16,-6 130.1,-4 252.2,8 124.1,10 234.2,20 246.2,20 14,0 28,68 36,176.1 62.1,766.6 388.3,1279 998.8,1565.2 282.2,132.1 688.5,222.2 1132.9,252.2 l 208.2,14 -14,-378.3 c -32,-854.6 -96.1,-1667.3 -184.1,-2327.8 -152.1,-1132.9 -318.2,-1595.2 -932.7,-2614 -382.3,-628.5 -486.4,-870.7 -510.4,-1170.9 -40,-518.4 236.2,-926.7 690.5,-1022.8 160.1,-32 466.4,-12 606.5,40 452.3,170.1 784.6,720.5 958.7,1583.2 144.1,712.5 160.1,1062.8 160.1,3664.8 v 2175.7 l 266.2,12 c 438.3,20 2379.8,76.1 2387.8,68 2,-4 -30,-202.1 -72.1,-442.3 C 5987,291.3 5806.9,-1818.3 5967,-2721 c 66,-372.3 190.1,-696.5 366.3,-954.7 98.1,-146.1 320.2,-356.3 468.4,-444.3 552.4,-328.3 1327,-252.2 1995.5,190.1 208.1,138.1 538.4,464.4 664.5,656.5 298.2,448.3 436.3,932.7 410.3,1431.1 -6,128.1 -22,260.2 -34,296.2 -66.1,188.2 -276.2,-22 -600.5,-596.4 -244.2,-436.4 -614.5,-660.5 -1082.8,-660.5 -590.4,0 -980.7,440.3 -1078.8,1212.9 -30,250.2 -12,1445.1 32,2049.6 60,834.6 214.2,2237.7 282.2,2588 l 12,54 H 8651 9900 v 720.5 720.5 l -3376.6,-2 c -1859.4,-1.9 -3476.6,-12 -3598.7,-20 z"
         id="path12"
         inkscape:connector-curvature="0"
         style="opacity:1" /></g></g></svg>